# xmcd CD database file generated by Grip 2.95
# 
# Track frame offsets:
#       180
#       11082
#       25601
#       40054
#       57656
#       73009
#       87000
#       103553
#       120687
#       130552
#       145897
#       157480
# 
# Disc length: 2236 seconds
# 
# Revision: 3
# Processed by: cddbd v1.4PL0 Copyright (c) Steve Scherf et al.
# Submitted via: Grip 2.95
# 
DISCID=a108ba0c
DTITLE=Vince Vance and the Valiants - I Know What it Means to Miss New Orleans
DYEAR=1900
DGENRE=
TTITLE0=I Know What it Means to Miss New Orleans
TTITLE1=Its Carnival Time in New Orleans
TTITLE2=When We Danced at the Mardi Gras
TTITLE3=Your Such A Beautiful Girl
TTITLE4=Amaadgo
TTITLE5=I Got Stung
TTITLE6=Jackie and Jill
TTITLE7=Night Train
TTITLE8=Shake Rattle and Roll
TTITLE9=All I Want For Christmas is You
TTITLE10=Bomb Iran 1980
TTITLE11=Bomb Iran 1987
EXTD=
EXTT0=
EXTT1=
EXTT2=
EXTT3=
EXTT4=
EXTT5=
EXTT6=
EXTT7=
EXTT8=
EXTT9=
EXTT10=
EXTT11=
PLAYORDER=
